<?xml version="1.0" standalone="no"?>
<!DOCTYPE svg PUBLIC "-//W3C//DTD SVG 20010904//EN"
 "http://www.w3.org/TR/2001/REC-SVG-20010904/DTD/svg10.dtd">
<svg version="1.0" xmlns="http://www.w3.org/2000/svg"
 width="300.000000pt" height="300.000000pt" viewBox="0 0 300.000000 300.000000"
 preserveAspectRatio="xMidYMid meet">
<metadata>
Created by potrace 1.10, written by Peter Selinger 2001-2011
</metadata>
<g transform="translate(0.000000,300.000000) scale(0.100000,-0.100000)"
fill="#000000" stroke="none">
<path d="M1402 2551 c-18 -5 -36 -12 -40 -16 -9 -9 86 0 112 10 14 6 17 5 12
-3 -4 -7 -4 -12 1 -13 4 0 23 -2 40 -3 22 -3 31 0 26 8 -5 8 -3 8 8 0 8 -7 33
-10 56 -8 32 2 45 -1 52 -14 6 -9 11 -13 11 -8 0 5 9 1 20 -9 11 -10 20 -15
20 -11 0 5 -14 21 -31 37 -23 21 -41 29 -69 29 -20 0 -70 2 -111 5 -41 2 -89
0 -107 -4z"/>
<path d="M1286 2523 c-23 -4 -26 -7 -15 -15 11 -7 8 -8 -9 -5 -34 8 -101 -18
-151 -58 -40 -32 -41 -35 -20 -35 14 0 31 9 39 20 8 11 19 20 26 20 6 0 19 8
28 19 25 28 135 36 206 15 69 -20 122 -52 113 -67 -3 -7 -3 -9 2 -5 4 4 16 -3
27 -15 25 -28 12 -2 -19 40 -13 17 -35 34 -49 37 -15 4 -22 11 -18 18 5 7 2 9
-9 5 -9 -3 -17 -2 -19 3 -2 5 -18 11 -36 13 -17 2 -35 7 -39 10 -3 4 -11 6
-17 6 -6 -1 -24 -4 -40 -6z"/>
<path d="M1553 2473 c9 -2 15 -9 11 -14 -3 -5 -2 -8 3 -7 11 4 59 -45 55 -57
-2 -5 3 -4 10 3 11 11 6 19 -26 48 -22 19 -46 33 -55 33 -13 -1 -12 -2 2 -6z"/>
<path d="M1672 2457 c15 -14 24 -28 21 -31 -4 -3 -1 -6 5 -6 7 0 12 -6 12 -12
1 -17 28 -53 35 -46 9 9 -41 77 -72 100 l-28 20 27 -25z"/>
<path d="M1237 2458 c-7 -5 1 -8 19 -8 17 0 51 -7 75 -15 l44 -15 -25 19 c-26
21 -93 32 -113 19z"/>
<path d="M1775 2449 c-4 -6 2 -20 12 -32 11 -12 20 -35 21 -50 2 -36 20 -69
33 -62 5 4 9 -1 9 -9 0 -8 5 -18 12 -22 6 -4 8 -3 5 3 -4 6 3 14 16 17 l22 7
-23 9 c-13 6 -21 14 -17 19 3 5 0 13 -6 17 -7 4 -9 3 -6 -3 4 -6 0 -17 -9 -24
-13 -11 -15 -11 -14 2 5 35 -2 60 -26 88 -14 17 -23 35 -19 41 3 5 4 10 1 10
-3 0 -8 -5 -11 -11z"/>
<path d="M1838 2429 c24 -28 29 -44 10 -33 -8 4 -10 3 -5 -2 5 -5 10 -7 12 -4
2 3 11 -4 20 -15 15 -19 15 -18 2 10 -8 17 -26 39 -38 50 l-24 20 23 -26z"/>
<path d="M1402 2422 c13 -8 38 -29 55 -45 18 -17 36 -28 40 -24 3 4 1 7 -6 7
-7 0 -10 4 -7 9 3 4 -6 18 -19 31 -13 13 -23 26 -20 29 2 4 -12 7 -31 8 -35 1
-35 1 -12 -15z"/>
<path d="M1203 2419 c-18 -5 -33 -13 -33 -18 0 -4 -12 -13 -26 -20 -15 -6 -24
-14 -21 -17 3 -3 36 11 73 30 68 35 70 43 7 25z"/>
<path d="M1494 2389 c14 -20 26 -44 26 -55 0 -16 -2 -16 -10 -4 -5 8 -11 12
-14 9 -3 -2 -2 -10 2 -16 8 -12 52 -7 52 6 0 3 -19 26 -41 51 -32 36 -35 38
-15 9z"/>
<path d="M1338 2392 c23 -10 51 -25 62 -34 28 -25 34 -5 6 21 -15 14 -40 24
-67 26 l-44 4 43 -17z"/>
<path d="M1580 2380 c12 -19 24 -43 27 -52 3 -10 10 -18 15 -18 6 0 8 6 5 13
-20 49 -20 50 -7 42 9 -5 11 -4 6 4 -4 6 -12 9 -17 5 -5 -3 -19 5 -30 18 -20
22 -20 21 1 -12z"/>
<path d="M1037 2368 c-43 -43 -59 -81 -47 -110 9 -23 10 -22 14 21 2 13 15 35
31 48 15 13 24 27 21 30 -4 4 3 12 15 19 14 7 18 14 10 18 -6 4 -26 -8 -44
-26z"/>
<path d="M1269 2383 c14 -3 36 -12 50 -21 l26 -16 -19 22 c-13 15 -29 22 -50
21 -26 -2 -27 -2 -7 -6z"/>
<path d="M1136 2326 c-20 -9 -24 -15 -14 -19 9 -3 28 3 44 14 32 21 14 24 -30
5z"/>
<path d="M1176 2275 c-30 -26 -28 -29 11 -19 13 4 21 10 18 14 -3 5 42 8 100
6 67 -1 100 1 90 7 -9 5 -39 7 -66 5 -27 -1 -49 -1 -49 2 0 3 -17 6 -38 7 -28
2 -45 -4 -66 -22z"/>
<path d="M1124 2280 c-12 -5 -28 -18 -36 -29 -8 -12 -17 -19 -19 -16 -3 2 -6
-7 -7 -20 -2 -32 24 -23 32 11 4 13 10 24 14 24 4 0 18 9 32 20 26 21 20 25
-16 10z"/>
<path d="M1920 2273 c0 -11 -5 -11 -20 -3 -11 6 -20 7 -20 2 0 -6 10 -12 23
-16 36 -9 50 -7 44 8 -3 8 -1 17 6 19 7 3 2 4 -10 4 -13 -1 -23 -7 -23 -14z"/>
<path d="M950 2229 c-25 -47 -18 -65 10 -29 18 22 28 70 15 70 -2 0 -14 -18
-25 -41z"/>
<path d="M1900 2231 c13 -11 27 -18 31 -15 4 2 13 -4 20 -13 8 -9 9 -14 2 -10
-7 5 -9 0 -6 -13 3 -11 9 -23 14 -26 15 -9 11 -46 -3 -38 -10 6 -10 4 0 -7 14
-16 16 -55 2 -64 -5 -3 -10 -11 -10 -16 0 -6 3 -8 8 -6 4 3 8 -10 9 -29 2 -19
-1 -34 -5 -34 -5 0 -9 -53 -9 -117 0 -65 2 -98 4 -73 2 24 9 51 16 58 18 22
21 307 4 362 -13 39 -17 45 -40 42 -14 -2 -28 2 -32 7 -3 6 -12 11 -18 11 -7
0 -1 -9 13 -19z"/>
<path d="M950 2175 c-7 -9 -10 -18 -7 -21 9 -9 48 16 42 27 -9 13 -21 11 -35
-6z"/>
<path d="M996 2115 c-20 -19 -36 -41 -36 -48 0 -6 19 7 42 30 23 23 39 45 36
48 -3 4 -22 -10 -42 -30z"/>
<path d="M955 2000 c9 -72 19 -175 18 -187 0 -7 3 -13 7 -13 4 0 19 -11 34
-25 31 -29 56 -83 56 -121 0 -15 4 -43 10 -63 5 -20 19 -76 31 -126 39 -168
73 -218 204 -303 109 -70 175 -96 245 -96 120 0 135 7 229 103 104 105 134
162 156 291 9 52 19 98 21 102 3 4 0 16 -5 25 -6 10 -11 14 -12 8 -1 -5 -4
-21 -6 -35 -2 -14 -5 -36 -6 -50 -1 -14 -7 -31 -14 -38 -7 -8 -10 -25 -6 -42
3 -18 1 -30 -5 -30 -5 0 -8 -10 -4 -22 3 -14 2 -19 -6 -14 -8 5 -12 0 -12 -14
0 -11 -6 -23 -14 -26 -8 -3 -17 -17 -21 -32 l-7 -27 -18 22 c-11 15 -16 31
-12 45 5 22 5 22 -12 6 -16 -17 -16 -19 4 -40 23 -25 23 -63 0 -63 -10 0 -15
10 -14 33 0 17 0 32 -2 32 -1 0 -9 -13 -18 -30 -8 -18 -10 -30 -4 -30 7 0 7
-4 -1 -13 -8 -10 -7 -17 2 -27 10 -10 9 -12 -3 -8 -18 7 -42 -16 -30 -28 4 -5
-4 -20 -17 -33 -24 -23 -25 -23 -18 -2 4 13 2 21 -5 21 -6 0 -8 -4 -5 -10 3
-5 1 -10 -5 -10 -6 0 -9 -4 -5 -9 3 -5 1 -12 -5 -16 -5 -3 -10 -1 -10 5 0 6
-10 1 -22 -10 -13 -12 -24 -17 -26 -12 -1 4 -22 7 -46 5 -30 -2 -47 1 -56 12
-14 17 -35 21 -24 4 4 -8 0 -8 -15 0 -11 7 -21 19 -22 29 0 13 -3 11 -9 -5 -5
-13 -12 -23 -14 -23 -3 0 -3 7 0 15 4 8 1 15 -5 15 -6 0 -12 10 -12 23 -1 18
-3 16 -9 -8 -7 -29 -8 -29 -10 -5 -1 14 -3 35 -4 47 0 12 -5 25 -10 30 -5 5
-7 1 -3 -9 7 -19 -21 -48 -43 -45 -25 4 -41 18 -34 29 5 7 2 8 -6 3 -7 -4 -16
-2 -21 6 -13 22 -11 29 9 22 22 -8 14 1 -15 16 -22 11 -22 10 -13 -15 l10 -26
-28 29 c-35 35 -84 117 -75 126 4 4 -2 14 -13 23 -10 8 -12 12 -4 8 12 -6 13
-4 3 7 -7 7 -13 21 -13 30 0 10 -6 20 -12 22 -10 4 -10 6 0 6 6 1 12 11 12 24
0 18 -2 19 -10 7 -8 -12 -9 -9 -8 11 1 14 -3 38 -10 55 -13 32 -42 192 -42
231 0 14 -4 22 -10 18 -6 -4 -8 -15 -5 -25 5 -15 0 -13 -23 8 -43 40 -58 97
-43 163 7 30 5 39 -10 50 -16 11 -16 14 -3 24 13 9 12 11 -5 11 -18 0 -20 -5
-16 -36z"/>
<path d="M1710 1898 c-19 -5 -41 -9 -48 -10 -7 -1 -11 -7 -8 -15 4 -8 -3 -13
-17 -14 -12 0 -16 -3 -9 -6 6 -2 10 -9 6 -14 -6 -11 10 -12 20 -1 4 4 20 7 34
8 131 3 142 4 142 20 0 8 5 12 10 9 6 -4 8 -11 5 -16 -3 -5 1 -6 9 -3 9 3 21
-5 31 -20 10 -14 22 -26 27 -26 6 0 4 7 -3 17 -8 9 -13 24 -11 34 4 23 -47 49
-77 37 -14 -5 -20 -4 -16 2 8 12 -47 11 -95 -2z"/>
<path d="M1298 1866 c-21 -7 -39 -11 -42 -9 -9 10 -74 -37 -79 -57 -5 -20 -5
-20 61 14 25 13 36 15 46 7 8 -7 23 -8 37 -3 13 4 47 7 74 6 69 -3 84 7 54 35
-27 25 -92 28 -151 7z"/>
<path d="M2002 1863 c14 -3 15 -9 8 -29 -6 -14 -10 -55 -10 -92 0 -45 -3 -62
-10 -52 -10 16 -11 15 -28 -24 -15 -35 -7 -47 14 -20 14 18 15 18 10 -6 -4
-17 -1 -14 10 10 19 41 40 180 31 204 -4 9 -14 15 -24 15 -16 -1 -16 -2 -1 -6z"/>
<path d="M1653 1809 c-47 -14 -59 -42 -34 -82 l20 -31 -5 39 c-5 34 -2 42 18
54 18 10 20 10 11 0 -20 -20 -15 -29 15 -28 23 0 24 2 8 8 -16 6 -17 9 -6 16
8 5 25 10 38 11 23 3 23 2 6 -11 -18 -14 -17 -14 8 -15 14 0 35 -3 45 -6 14
-4 15 -4 4 4 -7 5 -10 15 -7 21 5 8 14 7 29 -4 12 -8 33 -15 47 -15 l25 1 -26
22 c-21 19 -38 23 -95 24 -38 1 -84 -3 -101 -8z"/>
<path d="M1293 1784 c-23 -8 -44 -22 -47 -30 -6 -15 -2 -17 31 -8 13 4 20 10
17 15 -3 5 -1 9 5 9 5 0 13 -4 16 -10 3 -5 22 -10 41 -10 21 0 33 4 29 10 -4
6 -11 8 -16 5 -5 -4 -9 -1 -9 4 0 6 3 11 8 12 27 3 62 4 62 3 0 -2 -7 -10 -17
-19 -15 -16 -15 -17 8 -13 13 2 23 9 22 15 -2 9 7 11 30 6 26 -4 30 -3 20 7
-18 20 -150 23 -200 4z"/>
<path d="M1003 1726 c11 -24 47 -53 47 -39 -1 9 -47 63 -54 63 -2 0 1 -11 7
-24z"/>
<path d="M1502 1650 c-9 -18 -21 -30 -33 -30 -11 0 -22 -7 -25 -15 -4 -8 -10
-13 -14 -10 -25 15 -130 -112 -130 -156 0 -28 15 -47 28 -34 3 3 0 10 -7 14
-24 15 -2 61 55 116 36 35 54 47 55 36 0 -11 3 -10 11 7 6 12 19 22 28 22 21
0 53 44 48 66 -2 9 -8 3 -16 -16z"/>
<path d="M1631 1647 c5 -12 23 -30 39 -39 15 -9 30 -27 33 -40 4 -23 4 -23 6
2 1 17 -11 36 -40 62 -48 44 -52 46 -38 15z"/>
<path d="M1750 1559 c49 -39 70 -61 65 -69 -3 -5 -1 -19 4 -32 10 -23 10 -23
10 4 1 40 -16 70 -54 96 -43 27 -59 28 -25 1z"/>
<path d="M1473 1544 c-17 -14 -15 -14 14 -9 22 4 40 1 58 -11 26 -17 28 -17
60 0 21 11 41 15 55 11 16 -5 21 -3 18 6 -5 17 -58 25 -58 10 0 -12 -62 -15
-73 -4 -13 13 -56 11 -74 -3z"/>
<path d="M1676 1504 c-10 -25 -8 -27 29 -20 24 5 42 2 59 -9 18 -12 26 -13 32
-4 4 7 3 9 -3 6 -6 -4 -13 2 -16 13 -4 16 -13 20 -39 18 -19 -1 -39 1 -45 5
-6 4 -14 0 -17 -9z"/>
<path d="M1420 1499 c0 -6 -9 -9 -19 -6 -12 3 -22 -1 -26 -11 -7 -18 3 -31 13
-16 4 6 15 10 25 8 11 -1 17 4 17 17 0 10 -2 19 -5 19 -3 0 -5 -5 -5 -11z"/>
<path d="M1768 1444 c-5 -4 -266 -16 -373 -17 l-29 0 47 -41 48 -41 92 1 c50
1 106 5 122 10 28 7 127 94 107 94 -5 0 -11 -2 -14 -6z m-54 -44 c-47 -46
-284 -45 -284 1 0 6 4 8 9 4 5 -3 12 -2 14 2 3 5 67 9 142 9 133 2 137 1 119
-16z"/>
<path d="M1871 1423 c-1 -6 -7 -18 -15 -25 -20 -21 -31 -59 -14 -53 17 7 41
61 35 77 -4 9 -6 10 -6 1z"/>
<path d="M1481 1285 c12 -12 46 -21 87 -24 6 -1 12 -8 12 -16 0 -8 4 -15 10
-15 5 0 7 7 4 15 -5 11 3 17 25 21 17 4 34 11 38 17 4 7 -5 8 -28 3 -57 -13
-72 -13 -118 0 -38 11 -42 11 -30 -1z"/>
<path d="M1146 1252 c-9 -14 64 -94 81 -88 8 3 12 2 9 -2 -6 -11 55 -62 164
-137 47 -32 103 -72 125 -89 100 -79 126 -81 188 -18 40 41 87 148 86 196 0
30 -1 30 -13 -9 -7 -22 -21 -56 -30 -75 -21 -41 -115 -140 -132 -140 -7 0 -23
9 -36 19 -75 63 -98 80 -147 110 -30 18 -61 39 -68 47 -8 8 -18 14 -22 14 -3
0 -34 27 -67 60 -34 33 -64 57 -66 54 -3 -3 -19 11 -36 31 -16 20 -32 33 -36
27z"/>
<path d="M1092 1209 c-11 -11 -36 -59 -56 -107 -57 -137 -61 -142 -182 -203
-60 -31 -118 -60 -129 -66 -78 -42 -168 -83 -212 -97 -47 -16 -99 -46 -208
-123 -48 -34 -80 -95 -94 -183 -11 -65 -5 -142 29 -339 6 -35 9 -70 6 -78 -3
-7 1 -13 9 -13 17 0 21 73 6 112 -4 13 -11 59 -15 103 -3 44 -10 94 -14 110
-8 27 -5 50 12 133 11 49 50 109 95 141 93 69 128 90 196 115 99 37 175 73
287 138 36 21 76 41 87 43 50 9 103 72 141 168 13 31 26 57 29 57 15 -1 21 -8
129 -147 9 -13 37 -44 60 -70 24 -25 54 -63 67 -82 12 -20 46 -62 74 -94 28
-32 51 -65 51 -73 0 -8 4 -14 9 -14 5 0 14 -12 20 -27 14 -33 32 -65 49 -85 6
-8 8 -19 4 -23 -4 -5 -2 -5 5 -1 6 3 16 -2 22 -11 5 -10 13 -14 17 -10 5 4 3
16 -4 25 -6 9 -30 51 -52 92 -47 88 -133 206 -271 371 -141 169 -154 191 -141
229 13 35 1 39 -26 9z"/>
<path d="M1824 1108 c4 -13 9 -75 12 -138 2 -63 6 -145 8 -182 l3 -67 -57 59
c-63 65 -90 77 -146 61 -22 -6 -50 -11 -63 -11 -33 0 -118 -70 -99 -81 8 -6
17 -3 25 7 6 9 20 14 30 12 27 -5 74 -149 68 -208 -3 -25 -1 -51 4 -59 14 -21
41 28 37 66 -4 26 0 32 32 48 41 20 28 32 -17 17 -28 -10 -29 -9 -35 29 -4 22
-18 58 -31 79 -32 51 -32 59 8 58 17 0 46 3 63 7 32 7 70 -17 58 -36 -13 -21
-22 -114 -12 -127 6 -7 8 -30 5 -52 -3 -25 -1 -40 6 -40 6 0 8 -3 4 -6 -3 -3
5 -24 19 -45 13 -21 24 -44 24 -51 0 -9 3 -8 10 2 7 11 10 11 10 2 0 -7 11
-25 24 -39 24 -26 24 -29 24 -215 -1 -103 2 -191 5 -195 4 -3 7 16 7 43 2 222
8 322 23 361 16 42 17 168 2 428 -3 70 -1 94 11 113 l16 24 31 -32 c40 -41 86
-64 167 -83 174 -43 229 -58 280 -78 30 -11 71 -27 90 -34 19 -7 49 -19 65
-26 17 -7 32 -13 35 -14 30 -10 40 -23 51 -68 6 -29 22 -70 35 -93 13 -22 24
-52 24 -66 0 -15 7 -29 16 -32 9 -4 14 -9 11 -12 -3 -4 2 -14 11 -25 18 -19
49 -96 55 -136 2 -11 9 -28 15 -36 10 -12 9 -18 -5 -33 -17 -17 -17 -17 -1
-11 14 5 19 0 24 -21 3 -15 11 -40 17 -57 7 -16 11 -33 9 -37 -1 -5 3 -8 9 -8
6 0 9 -7 6 -15 -4 -8 -2 -17 4 -21 6 -4 6 -11 -2 -20 -9 -12 -5 -14 25 -14 20
0 36 3 36 6 0 16 -22 44 -32 38 -6 -4 -8 1 -4 14 4 12 -1 34 -14 56 -11 20
-20 47 -20 59 0 12 -9 47 -21 77 -11 30 -24 71 -29 90 -8 37 -65 146 -81 156
-6 4 -5 11 2 20 10 12 6 20 -20 42 -27 22 -33 35 -36 77 -3 42 -10 55 -39 82
-19 18 -48 35 -63 38 -15 4 -53 17 -83 30 -56 24 -100 37 -315 95 -65 18 -131
38 -147 44 -43 18 -126 103 -154 157 -25 51 -41 65 -30 27z m6 -388 c14 -20
18 -55 23 -185 l6 -160 -23 50 c-13 28 -35 64 -50 82 -33 39 -51 130 -42 207
l7 54 31 -12 c16 -6 38 -22 48 -36z"/>
<path d="M2586 606 c3 -27 10 -58 15 -70 6 -14 7 -5 2 29 -3 28 -10 59 -15 70
-5 13 -6 3 -2 -29z"/>
<path d="M2237 543 c-7 -12 -20 -149 -13 -143 5 6 25 150 20 150 -2 0 -5 -3
-7 -7z"/>
<path d="M1631 413 c18 -32 63 -116 101 -188 38 -72 66 -119 62 -105 -6 22
-48 105 -146 287 -18 35 -37 63 -41 63 -5 0 6 -26 24 -57z"/>
<path d="M2613 253 c-15 -10 -23 -25 -22 -42 l1 -26 11 26 c7 14 18 33 26 43
17 20 13 20 -16 -1z"/>
</g>
</svg>
